<svg xmlns="http://www.w3.org/2000/svg" width="569.13" height="569.13" viewBox="0 0 569.13 569.13"><defs><style>.cls-1{fill:#222120;}.cls-2{fill:#e43439;}.cls-3{fill:#fff;}</style></defs><title>Asset 3</title><g id="Layer_2" data-name="Layer 2"><g id="Layer_1-2" data-name="Layer 1"><path class="cls-1" d="M569.13,284.56C569.13,127.4,441.73,0,284.57,0S0,127.4,0,284.56,127.4,569.13,284.57,569.13,569.13,441.72,569.13,284.56"/><path class="cls-2" d="M61.07,461.21A284,284,0,0,0,284.16,569.13c157.16,0,284.57-127.41,284.57-284.56a283.39,283.39,0,0,0-64.2-180Z"/><path class="cls-3" d="M421.14,218.36c0-49.1,16.5-65.2,49.51-77.67v-8.06H362.39v8.06c33,12.47,49.5,28.57,49.5,77.67V362.44l-229-218.94c-10.46-9.66-13.28-10.87-20.12-10.87H76.64v8.06c18.92,2,30.19,7.24,57.55,33.8l10.47,10.06v164.2c0,49.11-16.5,65.2-49.5,77.68v8.05H203.42v-8.05c-33-12.48-49.5-28.57-49.5-77.68V192.2L413.1,436.49h8Z"/></g></g></svg>